<?xml version="1.0" encoding="UTF-8" standalone="no"?>
<!-- Created with Inkscape (http://www.inkscape.org/) -->

<svg
   width="512"
   height="512"
   viewBox="0 0 135.46666 135.46666"
   version="1.1"
   id="svg5"
   inkscape:version="1.1 (c4e8f9ed74, 2021-05-24)"
   sodipodi:docname="Knight.svg"
   xmlns:inkscape="http://www.inkscape.org/namespaces/inkscape"
   xmlns:sodipodi="http://sodipodi.sourceforge.net/DTD/sodipodi-0.dtd"
   xmlns="http://www.w3.org/2000/svg"
   xmlns:svg="http://www.w3.org/2000/svg">
  <sodipodi:namedview
     id="namedview7"
     pagecolor="#ffffff"
     bordercolor="#666666"
     borderopacity="1.0"
     inkscape:pageshadow="2"
     inkscape:pageopacity="0.0"
     inkscape:pagecheckerboard="0"
     inkscape:document-units="mm"
     showgrid="true"
     units="px"
     width="512px"
     inkscape:zoom="0.38529391"
     inkscape:cx="247.86273"
     inkscape:cy="798.09203"
     inkscape:window-width="1497"
     inkscape:window-height="1040"
     inkscape:window-x="0"
     inkscape:window-y="0"
     inkscape:window-maximized="1"
     inkscape:current-layer="layer1"
     inkscape:snap-bbox="true"
     inkscape:bbox-paths="true"
     inkscape:bbox-nodes="true"
     inkscape:snap-bbox-edge-midpoints="true"
     inkscape:snap-bbox-midpoints="true"
     inkscape:snap-object-midpoints="false">
    <inkscape:grid
       type="xygrid"
       id="grid9"
       spacingx="4.2333331"
       spacingy="4.2333331"
       empspacing="4" />
  </sodipodi:namedview>
  <defs
     id="defs2" />
  <g
     inkscape:label="Layer 1"
     inkscape:groupmode="layer"
     id="layer1">
    <path
       style="fill:#ff0000;fill-opacity:1;stroke:none;stroke-width:0.264583px;stroke-linecap:butt;stroke-linejoin:miter;stroke-opacity:1"
       d="M 122.76666,122.76666 V 88.899994 c -3.40693,-26.549933 -6.76401,-53.114502 -50.799997,-67.733329 0,0 -0.242108,-8.466666 -4.233333,-8.466666 -3.991225,0 -8.466667,8.466667 -8.466667,8.466667 l -8.466666,-1e-6 c 0,0 -4.233332,-8.466665 -8.466666,-8.466666 -4.233334,0 -4.233333,12.7 -4.233333,12.7 0,0 -21.166666,29.633328 -25.399999,50.799995 -4.2333328,21.166667 16.933333,16.933334 16.933333,16.933334 v 4.233333 c 0,0 4.979618,1.86621 8.466665,-10e-7 3.487047,-1.866211 8.466666,-12.7 8.466666,-12.7 9.59268,-5.511849 16.870384,-11.144683 21.166667,-16.93333 0,0 1.337254,12.450991 -4.233333,16.93333 -5.570587,4.482339 -22.947675,17.32107 -21.166667,38.1 z"
       id="path12376"
       sodipodi:nodetypes="ccczcczczcczcczcc" />
  </g>
</svg>
